<svg xmlns="http://www.w3.org/2000/svg" width="418.686" height="263.757" viewBox="0 0 418.686 263.757">
  <g id="Group_11545" data-name="Group 11545" transform="translate(-257.574 -65.805)">
    <path id="Upwiser" d="M88.3-77.067q0,4.555-4.348,4.555a13.927,13.927,0,0,1-3.727-.932A232.879,232.879,0,0,1,82.14-45.7q0,29.657-11.1,45.21T39.232,15.062q-15.062,0-23.11-8.721T8.074-18.892q0-27.742,15.579-52.431l-2.64.311a3.253,3.253,0,0,0-.518.052,3.113,3.113,0,0,1-.466.052q-4.244,0-4.244-4.244,0-7.867,16.977-7.867a19.566,19.566,0,0,1,11.024,3.105q4.348,2.847,4.348,6.056a4.957,4.957,0,0,1-1.527,3.468,4.553,4.553,0,0,1-3.338,1.6A7.245,7.245,0,0,1,39.7-70.235a19.575,19.575,0,0,0-4.192-2.174Q18.322-47.048,18.322-19q0,23.86,20.393,23.86,33.177,0,33.177-49.273A165.6,165.6,0,0,0,69.77-73.237a12.135,12.135,0,0,1-4.451.828,4.141,4.141,0,0,1-3.183-1.553,5.437,5.437,0,0,1-1.372-3.727q0-2.95,4.244-4.917a27.235,27.235,0,0,1,11.438-2.07,15.36,15.36,0,0,1,8.618,2.148A6.373,6.373,0,0,1,88.3-77.067Zm62.316,43.684q0,13.25-7.893,21.143T121.579-4.348a34.011,34.011,0,0,1-14.44-3.261Q105.98,4.5,105.224,7.3q-1.3,4.555-4.734,4.555a5.351,5.351,0,0,1-3.695-1.346,4.267,4.267,0,0,1-1.509-3.312q0,.311.828-6.573,1.035-8.074,1.6-17.442.828-13.457.828-29.088,0-3.105-.1-7.117t-.1-4.839q0-6.884,4.813-6.884,5.021,0,5.176,4.762l.1,3.157q6.211-6,16.1-6,11.749,0,18.84,7.867Q150.615-46.944,150.615-33.384Zm-10.3,0q0-9.472-4.4-14.7T123.7-53.311q-12.215,0-15.062,7.712v5.124q0,12.008-.621,23.6a31.01,31.01,0,0,0,13.561,3.209q8.954,0,13.845-5.124T140.315-33.384Zm93.164-.207q0,16.1-5.745,24.947Q222.2-.1,212.414-.1q-12.008,0-17.184-12.318Q189.071-2.95,181.67-2.95q-9.886,0-16.562-10.766-7.091-11.438-7.091-30.175,0-25.775,7.608-25.775a4.949,4.949,0,0,1,3.571,1.527,4.881,4.881,0,0,1,1.553,3.6q0-.362-1.113,6.729a95.406,95.406,0,0,0-1.113,14.8q0,12.732,4.141,20.807,3.83,7.453,9.213,7.453,3.778,0,6.5-4.27t2.717-11.1a97.519,97.519,0,0,0-.7-10.041q-.7-6.366-.7-9.006,0-6.987,5.745-6.987,5.849,0,5.849,7.5,0,1.139-.078,3.934t-.078,4.348q0,14.7.673,18.581,2.019,11.7,9.938,11.7,5.176,0,8.255-5.357t3.08-15.087a106.771,106.771,0,0,0-2.329-22.075q-2.329-11.05-2.329-11.516,0-4.141,4.348-4.141,4.917,0,7.764,8.851Q233.479-50.205,233.479-33.591Zm26.189-44.874q0,7.35-7.194,7.35a6.606,6.606,0,0,1-4.891-2.019A6.674,6.674,0,0,1,245.591-78a7.188,7.188,0,0,1,2.174-5.279,7.249,7.249,0,0,1,5.331-2.174,6.251,6.251,0,0,1,4.762,1.915A7.078,7.078,0,0,1,259.669-78.465Zm-2.226,19.72q0,31.21-2.226,46.116-.88,6-1.967,8.074a4.706,4.706,0,0,1-4.5,2.743,4.933,4.933,0,0,1-3.52-1.372,4.367,4.367,0,0,1-1.449-3.287q0,.259.828-3.571a91.246,91.246,0,0,0,1.6-9.886,169.3,169.3,0,0,0,.828-17.6q0-4.244-.1-8.954t-.1-5.124q0-6.987,1.19-9.73a4.611,4.611,0,0,1,4.658-3Q257.443-64.335,257.443-58.745ZM324.625-6.573q0,6.263-18.127,6.263-14.76,0-31.851-8.074A3.986,3.986,0,0,1,271.4-6.47a4.146,4.146,0,0,1-3.2-1.5,5.32,5.32,0,0,1-1.34-3.675q0-3.83,7.608-14.233,17.066-23.187,31.5-35.2a151.65,151.65,0,0,0-24.93-2.433h-4.345q-7.81,0-7.81-4.865,0-5.072,8.592-5.072a164.632,164.632,0,0,1,28.519,2.536q15.269,2.691,15.269,8.7A4.082,4.082,0,0,1,319.553-59q-2.277,1.553-4.555,3.157Q300.293-45.7,279.376-16.77A56.8,56.8,0,0,0,306.5-10.093a50.21,50.21,0,0,0,8-.673q4.168-.673,4.53-.673Q324.625-11.438,324.625-6.573Zm48.238-24.792a114.7,114.7,0,0,1-4.141,29.657q-2.07,7.764-6.159,7.764-4.192,0-4.192-4.762a8.973,8.973,0,0,1,.1-1.6,22.727,22.727,0,0,1-10.921,2.847q-9.989,0-15.6-5.642t-5.616-15.786q0-10.3,6.056-16.33t16.1-6.03A20.329,20.329,0,0,1,363.236-35.4q-.983-20.444-15.165-20.444a14.611,14.611,0,0,0-6.754,1.889q-3.6,1.889-4.684,1.889a4.287,4.287,0,0,1-3.157-1.449,4.641,4.641,0,0,1-1.4-3.312q0-3.105,4.5-5.745a22.173,22.173,0,0,1,11.49-2.847Q372.863-65.422,372.863-31.365ZM362.356-19.2q0-13.146-12.37-13.146-13.561,0-13.561,13.043,0,13.146,13.457,13.146,5.849,0,9.161-3.442T362.356-19.2Zm63.4-32.4a4.82,4.82,0,0,1-1.19,3.313,3.677,3.677,0,0,1-2.847,1.346q-1.242,0-3.675-1.812a7.645,7.645,0,0,0-4.4-1.812,9.351,9.351,0,0,0-7.971,4.322q-3.054,4.322-3.054,11.671v6.78q0,11.335-2.381,18.012Q398.018-3.52,394.5-3.52q-4.71,0-4.71-4.658a55.1,55.1,0,0,1,1.449-6.858,47.052,47.052,0,0,0,1.449-11.154q0-14.492-4.141-23.187-.1-.259-2.847-5.228a9.161,9.161,0,0,1-1.4-4.037,4.185,4.185,0,0,1,1.6-3.105,5.087,5.087,0,0,1,3.468-1.449q5.486,0,9.109,13.457,5.383-10.352,15.683-10.352a13.617,13.617,0,0,1,8.385,2.407A7.317,7.317,0,0,1,425.76-51.6Z" transform="translate(250 314)" stroke="#000" stroke-width="1"/>
    <g id="Group_11544" data-name="Group 11544" transform="translate(1.534 5)">
      <g id="Ellipse_34" data-name="Ellipse 34" transform="translate(468.5 77.951)" fill="none" stroke="#000" stroke-width="5">
        <ellipse cx="41.5" cy="41" rx="41.5" ry="41" stroke="none"/>
        <ellipse cx="41.5" cy="41" rx="39" ry="38.5" fill="none"/>
      </g>
      <path id="Path_35" data-name="Path 35" d="M8393.42,2346.79s-23.189,8.617-35.975,2.3-15.166-27.574-15.166-27.574l-2.3-16.912s-2.9.138,10.57,11.857c4.46,3.879,21.989,2.358,28.493,6.893,12.545,8.749,14.375,25.736,14.375,25.736" transform="translate(-7848.214 -2237.568)" fill="none" stroke="#000" stroke-width="4"/>
      <path id="Path_33" data-name="Path 33" d="M8152,2315.5s2.676,29.853,15.606,39.029,36.115-2.323,36.115-2.323.03-14.9-10.254-20.908-19.508-1.626-29.875-5.576S8152,2315.5,8152,2315.5Z" transform="translate(-7426.095 -2954.657) rotate(4.992)" fill="#02b1c5"/>
      <path id="Path_36" data-name="Path 36" d="M8326,2371.33s9.664-3.25,16-8.667,9.333-16.333,9.333-16.333" transform="translate(-7853 -2244)" fill="none" stroke="#000" stroke-width="4"/>
      <g id="Group_11543" data-name="Group 11543">
        <path id="Path_34" data-name="Path 34" d="M8158.9,2351.29c-4.616,8.372-23.89,17.209-23.89,17.209s-.815-12.093,3.8-20.465S8155.1,2328.5,8155.1,2328.5,8163.51,2342.92,8158.9,2351.29Z" transform="translate(-7661.945 -2245.5)" fill="#02b1c5"/>
        <path id="Path_38" data-name="Path 38" d="M8345,2421.67s11.792,7.583,21.667,6.667S8384,2419,8384,2419a52.878,52.878,0,0,0-19-2.667C8355.25,2417,8345,2421.67,8345,2421.67Z" transform="translate(-7714.972 -2679.444) rotate(3)" fill="#f5f96f" stroke="#000" stroke-width="3"/>
        <path id="Path_37" data-name="Path 37" d="M8322.67,2433.67s8.906-8.766,19.221-13.922A105.412,105.412,0,0,1,8354,2414.8a54.589,54.589,0,0,1,9.923-1.754c8.6-.269,14.2,1.388,25.221,5.878A65.881,65.881,0,0,1,8408,2431" transform="translate(-7809.387 -2389.625) rotate(0.974)" fill="none" stroke="#000" stroke-width="4"/>
        <g id="Group_11541" data-name="Group 11541">
          <path id="Path_39" data-name="Path 39" d="M8238.33,2450H8223l2.405,4.337-2.622,5.247,1.982,3.966-1.843,4.033.466,4.678,14.944-.261s5.334-5.167,5.334-10.667S8238.33,2450,8238.33,2450Z" transform="translate(-7619.918 -2393.317) rotate(0.974)" fill="none" stroke="#000" stroke-linecap="round" stroke-width="3"/>
          <path id="Path_40" data-name="Path 40" d="M8422.21,2449.21v15.39h15.413s4.187-4.35,4.187-8.7-4.187-8.7-4.187-8.7H8422.21Z" transform="translate(-7855.811 -2244.6)" fill="#f5f96f"/>
        </g>
        <g id="Group_11542" data-name="Group 11542" transform="translate(445.466 199.818)">
          <path id="Path_39-2" data-name="Path 39" d="M15.55,22.261H.217l2.4-4.337L0,12.677,1.982,8.711.14,4.678.605,0,15.55.261s5.334,5.167,5.334,10.667S15.55,22.261,15.55,22.261Z" transform="translate(27.534 22.257) rotate(179.026)" fill="none" stroke="#000" stroke-linecap="round" stroke-width="3"/>
          <path id="Path_40-2" data-name="Path 40" d="M8441.81,2449.21v15.39H8426.4s-4.187-4.35-4.187-8.7,4.187-8.7,4.187-8.7h15.413Z" transform="translate(-8422.211 -2444.418)" fill="#f5f96f"/>
        </g>
        <path id="Path_41" data-name="Path 41" d="M8206.67,2431.33l78.069-49.447s9.429-.1,12.6,4.733,0,13.275,0,13.275L8220.67,2450l-36.67,7.33Z" transform="translate(-7669.137 -2242.286)" fill="#02b1c5"/>
      </g>
    </g>
  </g>
</svg>
